<svg xmlns="http://www.w3.org/2000/svg" width="32" height="32" viewBox="0 0 32 32" fill="none">
    <path d="M2.6665 4H10.6665C12.081 4 13.4375 4.5619 14.4377 5.5621C15.4379 6.56229 15.9998 7.91885 15.9998 9.33333V28C15.9998 26.9391 15.5784 25.9217 14.8283 25.1716C14.0781 24.4214 13.0607 24 11.9998 24H2.6665V4Z" stroke="#0029FF" stroke-width="3.5" stroke-linecap="round" stroke-linejoin="round"/>
    <path d="M29.3333 4H21.3333C19.9188 4 18.5623 4.5619 17.5621 5.5621C16.5619 6.56229 16 7.91885 16 9.33333V28C16 26.9391 16.4214 25.9217 17.1716 25.1716C17.9217 24.4214 18.9391 24 20 24H29.3333V4Z" stroke="#0029FF" stroke-width="3.5" stroke-linecap="round" stroke-linejoin="round"/>
  </svg>