
<svg xmlns="http://www.w3.org/2000/svg" width="37" height="37" viewBox="0 0 37 37" fill="none">
    <g clip-path="url(#clip0_163_1407)">
      <path fill-rule="evenodd" clip-rule="evenodd" d="M37 18.5C37 23.4065 35.0509 28.1121 31.5815 31.5815C28.1121 35.0509 23.4065 37 18.5 37C13.5935 37 8.88795 35.0509 5.41852 31.5815C1.9491 28.1121 0 23.4065 0 18.5C0 13.5935 1.9491 8.88795 5.41852 5.41852C8.88795 1.9491 13.5935 0 18.5 0C23.4065 0 28.1121 1.9491 31.5815 5.41852C35.0509 8.88795 37 13.5935 37 18.5ZM12.3811 10.7439C12.164 10.5268 11.8695 10.4048 11.5625 10.4048C11.2555 10.4048 10.961 10.5268 10.7439 10.7439C10.5268 10.961 10.4048 11.2555 10.4048 11.5625C10.4048 11.8695 10.5268 12.164 10.7439 12.3811L16.8651 18.5L10.7439 24.6189C10.6364 24.7264 10.5511 24.854 10.4929 24.9945C10.4347 25.1349 10.4048 25.2855 10.4048 25.4375C10.4048 25.5895 10.4347 25.7401 10.4929 25.8805C10.5511 26.021 10.6364 26.1486 10.7439 26.2561C10.961 26.4732 11.2555 26.5952 11.5625 26.5952C11.7145 26.5952 11.8651 26.5653 12.0055 26.5071C12.146 26.4489 12.2736 26.3636 12.3811 26.2561L18.5 20.1349L24.6189 26.2561C24.7264 26.3636 24.854 26.4489 24.9945 26.5071C25.1349 26.5653 25.2855 26.5952 25.4375 26.5952C25.5895 26.5952 25.7401 26.5653 25.8805 26.5071C26.021 26.4489 26.1486 26.3636 26.2561 26.2561C26.3636 26.1486 26.4489 26.021 26.5071 25.8805C26.5653 25.7401 26.5952 25.5895 26.5952 25.4375C26.5952 25.2855 26.5653 25.1349 26.5071 24.9945C26.4489 24.854 26.3636 24.7264 26.2561 24.6189L20.1349 18.5L26.2561 12.3811C26.3636 12.2736 26.4489 12.146 26.5071 12.0055C26.5653 11.8651 26.5952 11.7145 26.5952 11.5625C26.5952 11.4105 26.5653 11.2599 26.5071 11.1195C26.4489 10.979 26.3636 10.8514 26.2561 10.7439C26.1486 10.6364 26.021 10.5511 25.8805 10.4929C25.7401 10.4347 25.5895 10.4048 25.4375 10.4048C25.2855 10.4048 25.1349 10.4347 24.9945 10.4929C24.854 10.5511 24.7264 10.6364 24.6189 10.7439L18.5 16.8651L12.3811 10.7439Z" fill="white"/>
    </g>
    <defs>
      <clipPath id="clip0_163_1407">
        <rect width="37" height="37" fill="white"/>
      </clipPath>
    </defs>
  </svg>