<svg xmlns="http://www.w3.org/2000/svg" width="37" height="29" viewBox="0 0 37 29" fill="none">
    <path fill-rule="evenodd" clip-rule="evenodd" d="M7.1965 4.42906C7.14973 3.94753 7.20421 3.46153 7.35644 3.0023C7.50867 2.54307 7.75528 2.12077 8.08043 1.76252C8.40558 1.40426 8.80207 1.11799 9.24444 0.922091C9.68681 0.726189 10.1653 0.624992 10.6491 0.625H16.1875C16.4942 0.625 16.7883 0.746819 17.0051 0.963658C17.2219 1.1805 17.3438 1.47459 17.3438 1.78125V2.66462C17.3438 4.27412 16.1944 5.398 15.3272 6.06169C15.2229 6.13586 15.1328 6.22831 15.0613 6.33456C15.0497 6.35262 15.0404 6.37204 15.0336 6.39237L15.0312 6.40625V6.41319L15.0382 6.43631C15.0474 6.45944 15.0706 6.50106 15.1214 6.55888C15.2984 6.74761 15.5105 6.9 15.7458 7.0075C16.3956 7.33125 17.3669 7.5625 18.5 7.5625C19.6378 7.5625 20.609 7.33125 21.2519 7.0075C21.488 6.90025 21.7009 6.74785 21.8786 6.55888C21.9125 6.52175 21.9406 6.47963 21.9618 6.434L21.9688 6.41087V6.39237C21.9619 6.37203 21.9526 6.35261 21.941 6.33456C21.8695 6.22831 21.7794 6.13586 21.6751 6.06169C20.8079 5.398 19.6586 4.27412 19.6586 2.66462V1.78125C19.6586 1.47499 19.7801 1.18125 19.9964 0.964475C20.2127 0.747702 20.5062 0.625613 20.8125 0.625H26.3509C26.8347 0.624992 27.3132 0.726189 27.7556 0.922091C28.1979 1.11799 28.5944 1.40426 28.9196 1.76252C29.2447 2.12077 29.4913 2.54307 29.6436 3.0023C29.7958 3.46153 29.8503 3.94753 29.8035 4.42906L29.2416 11.0312H29.7896C30.2406 11.0312 30.7609 10.6913 31.3506 9.92125C31.8362 9.28763 32.5716 8.71875 33.5312 8.71875C34.8447 8.71875 35.7212 9.75244 36.1999 10.7121C36.7156 11.7412 37 13.0824 37 14.5C37 15.9176 36.7156 17.2588 36.1999 18.2879C35.7212 19.2476 34.8447 20.2812 33.5312 20.2812C32.5716 20.2812 31.8362 19.7124 31.3506 19.0787C30.7609 18.3087 30.2406 17.9688 29.7896 17.9688H29.2416L29.8035 24.5709C29.8503 25.0525 29.7958 25.5385 29.6436 25.9977C29.4913 26.4569 29.2447 26.8792 28.9196 27.2375C28.5944 27.5957 28.1979 27.882 27.7556 28.0779C27.3132 28.2738 26.8347 28.375 26.3509 28.375H20.8125C20.5058 28.375 20.2117 28.2532 19.9949 28.0363C19.7781 27.8195 19.6562 27.5254 19.6562 27.2188V26.3354C19.6562 24.7259 20.8056 23.602 21.6727 22.9383C21.7771 22.8641 21.8672 22.7717 21.9387 22.6654C21.9503 22.6474 21.9596 22.628 21.9664 22.6076L21.9688 22.5938V22.5868L21.9618 22.5637C21.9404 22.5189 21.9123 22.4776 21.8786 22.4411C21.7016 22.2523 21.4895 22.1 21.2542 21.9925C20.6044 21.6687 19.6331 21.4375 18.5 21.4375C17.3646 21.4375 16.391 21.6687 15.7481 21.9925C15.5119 22.0997 15.299 22.2521 15.1214 22.4411C15.0875 22.4783 15.0594 22.5204 15.0382 22.566L15.0312 22.5891V22.5938L15.0336 22.6076C15.0404 22.628 15.0497 22.6474 15.0613 22.6654C15.0983 22.7279 15.1769 22.8227 15.3272 22.9383C16.1944 23.602 17.3438 24.7259 17.3438 26.3354V27.2188C17.3438 27.5254 17.2219 27.8195 17.0051 28.0363C16.7883 28.2532 16.4942 28.375 16.1875 28.375H10.6491C10.1653 28.375 9.68681 28.2738 9.24444 28.0779C8.80207 27.882 8.40558 27.5957 8.08043 27.2375C7.75528 26.8792 7.50867 26.4569 7.35644 25.9977C7.20421 25.5385 7.14973 25.0525 7.1965 24.5709L7.76075 17.9688H7.21037C6.75944 17.9688 6.23913 18.3087 5.64944 19.0787C5.16381 19.7124 4.42844 20.2812 3.46875 20.2812C2.15525 20.2812 1.27881 19.2476 0.800125 18.2879C0.284437 17.2588 0 15.9176 0 14.5C0 13.0824 0.284437 11.7412 0.800125 10.7121C1.27881 9.75244 2.15525 8.71875 3.46875 8.71875C4.42844 8.71875 5.16381 9.28763 5.64944 9.92125C6.23913 10.6913 6.75944 11.0312 7.21037 11.0312H7.76075L7.1965 4.42906Z" fill="#9F5093"/>
  </svg>