<svg xmlns="http://www.w3.org/2000/svg" width="31" height="31" viewBox="0 0 31 31" fill="none">
    <path fill-rule="evenodd" clip-rule="evenodd" d="M4.80286 0.96875C4.80286 0.711821 4.90492 0.465416 5.0866 0.28374C5.26828 0.102064 5.51468 0 5.77161 0L25.1466 0C25.4035 0 25.6499 0.102064 25.8316 0.28374C26.0133 0.465416 26.1154 0.711821 26.1154 0.96875C26.1154 2.01113 26.0921 3.00312 26.0495 3.94475C26.8151 4.07152 27.5475 4.35031 28.2036 4.76466C28.8597 5.17902 29.4262 5.72056 29.8697 6.35734C30.3132 6.99413 30.6246 7.71327 30.7857 8.47235C30.9469 9.23144 30.9544 10.0151 30.8078 10.7771C30.6612 11.5391 30.3635 12.2641 29.9323 12.9092C29.501 13.5544 28.945 14.1067 28.2969 14.5335C27.6488 14.9603 26.9219 15.253 26.1589 15.3944C25.3959 15.5358 24.6123 15.5229 23.8543 15.3566C22.3237 18.9701 20.2157 20.7371 18.3654 21.1904V25.4006L21.1263 26.0904C21.5022 26.1834 21.8567 26.3519 22.1667 26.5844L25.7279 29.2563C25.8905 29.3782 26.0107 29.5483 26.0713 29.7424C26.1319 29.9365 26.1299 30.1447 26.0656 30.3376C26.0013 30.5305 25.878 30.6983 25.713 30.8171C25.5481 30.936 25.3499 31 25.1466 31H5.77161C5.56829 31 5.37012 30.936 5.20517 30.8171C5.04023 30.6983 4.91687 30.5305 4.85257 30.3376C4.78828 30.1447 4.7863 29.9365 4.84692 29.7424C4.90755 29.5483 5.0277 29.3782 5.19036 29.2563L8.75148 26.5844C9.06148 26.3519 9.41605 26.1834 9.79192 26.0904L12.5529 25.4006V21.1904C10.7025 20.7371 8.59455 18.9701 7.06392 15.3547C6.30556 15.5219 5.52138 15.5354 4.7577 15.3945C3.99402 15.2536 3.26632 14.961 2.61758 14.5342C1.96884 14.1073 1.41221 13.5548 0.980571 12.9092C0.548931 12.2637 0.251031 11.5381 0.104463 10.7755C-0.0421047 10.0129 -0.0343678 9.22865 0.127217 8.46907C0.288801 7.7095 0.600957 6.99 1.04525 6.35307C1.48954 5.71615 2.05696 5.17471 2.71399 4.76073C3.37103 4.34676 4.10436 4.06865 4.87067 3.94281C4.82506 2.95212 4.80245 1.9605 4.80286 0.96875ZM4.99467 5.89C3.98366 6.07499 3.08754 6.65402 2.50345 7.49972C1.91936 8.34543 1.69515 9.38852 1.88014 10.3995C2.06513 11.4105 2.64416 12.3067 3.48987 12.8908C4.33557 13.4748 5.37866 13.6991 6.38967 13.5141C5.74448 11.4797 5.25042 8.96869 4.99467 5.89ZM24.5305 13.5141C25.5415 13.6991 26.5846 13.4748 27.4303 12.8908C28.276 12.3067 28.855 11.4105 29.04 10.3995C29.225 9.38852 29.0008 8.34543 28.4167 7.49972C27.8326 6.65402 26.9365 6.07499 25.9255 5.89C25.6678 8.97062 25.1737 11.4797 24.5305 13.5141Z" fill="#BB9D32"/>
  </svg>