<svg xmlns="http://www.w3.org/2000/svg" width="32" height="32" viewBox="0 0 32 32" fill="none">
    <path d="M27.274 4.72599H27.272L30.624 5.39599C30.804 5.43199 30.952 5.56399 31.004 5.74199C31.0303 5.82846 31.0326 5.92043 31.0108 6.00812C30.9889 6.09581 30.9437 6.17594 30.88 6.23999L28.134 8.98799C27.8055 9.31593 27.3602 9.50007 26.896 9.49999H24.62L18.9 15.222C19.0091 15.634 19.0292 16.0646 18.9589 16.485C18.8885 16.9054 18.7294 17.306 18.4921 17.6601C18.2549 18.0142 17.9448 18.3137 17.5827 18.5386C17.2206 18.7634 16.8148 18.9086 16.3922 18.9643C15.9696 19.02 15.54 18.9851 15.132 18.8617C14.7239 18.7384 14.3469 18.5295 14.0259 18.249C13.705 17.9686 13.4474 17.6229 13.2705 17.2351C13.0936 16.8473 13.0014 16.4262 13 16C13.0003 15.5398 13.1064 15.0858 13.3101 14.6731C13.5138 14.2604 13.8097 13.9001 14.1749 13.62C14.54 13.3399 14.9647 13.1475 15.4161 13.0577C15.8674 12.9679 16.3334 12.983 16.778 13.102L22.5 7.37799V5.10399C22.5 4.63999 22.684 4.19399 23.012 3.86599L25.76 1.11799C25.8241 1.05425 25.9042 1.00906 25.9919 0.987226C26.0796 0.965392 26.1715 0.967731 26.258 0.993994C26.436 1.04599 26.568 1.19399 26.604 1.37399L27.274 4.72599Z" fill="#F80000"/>
    <path d="M3.99989 16.0001C4.00194 17.716 4.37198 19.4115 5.08502 20.9723C5.79807 22.533 6.83755 23.9227 8.13334 25.0476C9.42913 26.1725 10.9511 27.0063 12.5966 27.493C14.242 27.9796 15.9727 28.1077 17.6719 27.8687C19.3711 27.6296 20.9992 27.0288 22.4465 26.107C23.8938 25.1852 25.1266 23.9637 26.0616 22.5249C26.9967 21.0862 27.6123 19.4636 27.867 17.7667C28.1217 16.0698 28.0094 14.3379 27.5379 12.6881C27.4717 12.4953 27.4454 12.2911 27.4606 12.0879C27.4759 11.8847 27.5323 11.6866 27.6265 11.5059C27.7207 11.3252 27.8507 11.1655 28.0086 11.0366C28.1665 10.9078 28.349 10.8124 28.5449 10.7562C28.7408 10.7001 28.9461 10.6845 29.1483 10.7102C29.3505 10.736 29.5453 10.8026 29.7209 10.9061C29.8965 11.0095 30.0492 11.1476 30.1697 11.312C30.2902 11.4763 30.376 11.6635 30.4219 11.8621C31.3349 15.0571 31.1615 18.4649 29.9288 21.5508C28.6961 24.6366 26.4738 27.2259 23.6107 28.9125C20.7476 30.5991 17.4056 31.2875 14.109 30.8697C10.8124 30.4519 7.74777 28.9516 5.39589 26.6041C3.04657 24.2528 1.54464 21.1879 1.1259 17.8905C0.707154 14.5932 1.39531 11.2501 3.08234 8.38623C4.76936 5.52235 7.3597 3.29981 10.4467 2.06757C13.5337 0.835325 16.9425 0.663155 20.1379 1.57809C20.5184 1.68931 20.8394 1.94662 21.0307 2.29379C21.222 2.64096 21.2682 3.04976 21.159 3.43084C21.0499 3.81193 20.7943 4.13431 20.4482 4.32755C20.1021 4.52078 19.6936 4.56915 19.3119 4.46209C17.5251 3.94942 15.6436 3.85882 13.8157 4.19742C11.9879 4.53602 10.2637 5.29458 8.77907 6.41328C7.29445 7.53199 6.08997 8.98026 5.26061 10.6439C4.43125 12.3076 3.99966 14.1412 3.99989 16.0001Z" fill="#F80000"/>
    <path d="M9.99998 16C10.0001 17.0932 10.2987 18.1656 10.8635 19.1015C11.4283 20.0375 12.238 20.8014 13.2051 21.311C14.1723 21.8206 15.2602 22.0565 16.3515 21.9932C17.4429 21.93 18.4962 21.5699 19.398 20.952C20.2996 20.3324 21.0146 19.4782 21.4658 18.4817C21.917 17.4852 22.0872 16.3842 21.958 15.298C21.923 15.0344 21.959 14.7662 22.0621 14.5211C22.1652 14.276 22.3318 14.0629 22.5447 13.9035C22.7576 13.7442 23.0091 13.6445 23.2733 13.6147C23.5375 13.5849 23.8049 13.6261 24.048 13.734C24.291 13.8405 24.5014 14.0095 24.6577 14.2238C24.8141 14.4381 24.9108 14.6901 24.938 14.954C25.1553 16.8102 24.7894 18.688 23.891 20.3268C22.9926 21.9656 21.6064 23.2841 19.9247 24.0992C18.2429 24.9144 16.3492 25.1858 14.5062 24.8758C12.6632 24.5658 10.9624 23.6898 9.63991 22.3693C8.31741 21.0488 7.43878 19.3494 7.12599 17.5068C6.81319 15.6643 7.08174 13.7701 7.89435 12.0872C8.70697 10.4042 10.0233 9.01596 11.6608 8.1151C13.2982 7.21425 15.1755 6.84548 17.032 7.05997C17.2308 7.07841 17.4239 7.13636 17.6 7.2304C17.7761 7.32445 17.9317 7.4527 18.0576 7.60764C18.1834 7.76259 18.2771 7.9411 18.3332 8.13273C18.3892 8.32436 18.4064 8.52524 18.3837 8.72359C18.3611 8.92195 18.2991 9.11379 18.2014 9.28788C18.1036 9.46196 17.9721 9.61479 17.8146 9.73739C17.657 9.85999 17.4765 9.94991 17.2838 10.0019C17.091 10.0538 16.8898 10.0668 16.692 10.04C15.8513 9.94236 14.9995 10.0237 14.1925 10.2787C13.3854 10.5336 12.6415 10.9564 12.0095 11.5193C11.3775 12.0822 10.8717 12.7724 10.5253 13.5447C10.179 14.3169 9.99997 15.1536 9.99998 16Z" fill="#F80000"/>
  </svg>