<svg xmlns="http://www.w3.org/2000/svg" width="34" height="26" viewBox="0 0 34 26" fill="none">
    <path fill-rule="evenodd" clip-rule="evenodd"
        d="M0 24.5556C0 24.1725 0.162825 23.8051 0.452653 23.5342C0.742482 23.2633 1.13557 23.1111 1.54545 23.1111H32.4545C32.8644 23.1111 33.2575 23.2633 33.5473 23.5342C33.8372 23.8051 34 24.1725 34 24.5556C34 24.9386 33.8372 25.306 33.5473 25.5769C33.2575 25.8478 32.8644 26 32.4545 26H1.54545C1.13557 26 0.742482 25.8478 0.452653 25.5769C0.162825 25.306 0 24.9386 0 24.5556ZM0 13C0 12.6169 0.162825 12.2495 0.452653 11.9786C0.742482 11.7077 1.13557 11.5556 1.54545 11.5556H32.4545C32.8644 11.5556 33.2575 11.7077 33.5473 11.9786C33.8372 12.2495 34 12.6169 34 13C34 13.3831 33.8372 13.7505 33.5473 14.0214C33.2575 14.2923 32.8644 14.4444 32.4545 14.4444H1.54545C1.13557 14.4444 0.742482 14.2923 0.452653 14.0214C0.162825 13.7505 0 13.3831 0 13ZM0 1.44444C0 1.06135 0.162825 0.693954 0.452653 0.423068C0.742482 0.152182 1.13557 0 1.54545 0H32.4545C32.8644 0 33.2575 0.152182 33.5473 0.423068C33.8372 0.693954 34 1.06135 34 1.44444C34 1.82753 33.8372 2.19493 33.5473 2.46582C33.2575 2.73671 32.8644 2.88889 32.4545 2.88889H1.54545C1.13557 2.88889 0.742482 2.73671 0.452653 2.46582C0.162825 2.19493 0 1.82753 0 1.44444Z"
        fill="white" />
</svg>