<svg xmlns="http://www.w3.org/2000/svg" width="24" height="24" viewBox="0 0 24 24" fill="none">
    <g clip-path="url(#clip0_3817_1703)">
    <path fill-rule="evenodd" clip-rule="evenodd" d="M0 1.5L1.5 0L6.1215 3.3C6.31612 3.43893 6.4747 3.62236 6.58403 3.83502C6.69336 4.04768 6.75026 4.28339 6.75 4.5225V4.6275C6.74985 4.82472 6.78858 5.02003 6.864 5.20226C6.93941 5.3845 7.05002 5.55007 7.1895 5.6895L15.75 14.25L17.121 13.7925C17.3853 13.7046 17.6688 13.692 17.9398 13.7561C18.2108 13.8202 18.4586 13.9585 18.6555 14.1555L23.6895 19.1895C23.9707 19.4708 24.1287 19.8523 24.1287 20.25C24.1287 20.6477 23.9707 21.0292 23.6895 21.3105L21.3105 23.6895C21.0292 23.9707 20.6477 24.1287 20.25 24.1287C19.8523 24.1287 19.4708 23.9707 19.1895 23.6895L14.1555 18.6555C13.9585 18.4586 13.8202 18.2108 13.7561 17.9398C13.692 17.6688 13.7046 17.3853 13.7925 17.121L14.25 15.75L5.6895 7.1895C5.40826 6.90818 5.02679 6.75008 4.629 6.75H4.5225C4.28364 6.75002 4.04823 6.693 3.83585 6.58368C3.62348 6.47437 3.44028 6.31591 3.3015 6.1215L0 1.5ZM17.031 15.969C16.8902 15.8282 16.6992 15.7491 16.5 15.7491C16.3008 15.7491 16.1098 15.8282 15.969 15.969C15.8282 16.1098 15.7491 16.3008 15.7491 16.5C15.7491 16.6992 15.8282 16.8902 15.969 17.031L20.469 21.531C20.6098 21.6718 20.8008 21.7509 21 21.7509C21.1992 21.7509 21.3902 21.6718 21.531 21.531C21.6718 21.3902 21.7509 21.1992 21.7509 21C21.7509 20.8008 21.6718 20.6098 21.531 20.469L17.031 15.969Z" fill="#808080"/>
    <path fill-rule="evenodd" clip-rule="evenodd" d="M23.8456 3.33468C24.0491 4.09823 24.0481 4.90187 23.8428 5.66494C23.6375 6.428 23.2351 7.12364 22.676 7.68202C22.1169 8.24039 21.4207 8.64185 20.6573 8.84611C19.894 9.05036 19.0904 9.05021 18.3271 8.84568L8.81558 18.2252C9.09905 19.1846 9.05473 20.2111 8.68962 21.1426C8.32451 22.074 7.65943 22.8572 6.79948 23.3684C5.93954 23.8796 4.93375 24.0897 3.94108 23.9654C2.9484 23.8412 2.02543 23.3896 1.31803 22.6822C0.610619 21.9748 0.159112 21.0519 0.0348529 20.0592C-0.0894064 19.0665 0.120668 18.0607 0.63188 17.2008C1.14309 16.3408 1.92629 15.6758 2.85771 15.3106C3.78913 14.9455 4.81566 14.9012 5.77508 15.1847L15.1531 5.67318C14.946 4.90931 14.944 4.10432 15.1473 3.33944C15.3507 2.57455 15.7522 1.87683 16.3113 1.31665C16.8704 0.75648 17.5673 0.353674 18.3318 0.148874C19.0963 -0.0559261 19.9013 -0.0554755 20.6656 0.15018L17.4526 3.36318L17.9986 6.00018L20.6341 6.54618L23.8456 3.33468ZM3.79058 16.8632L4.50008 16.5002L5.20658 16.8632L6.00008 16.9022L6.43058 17.5697L7.09808 18.0002L7.13708 18.7937L7.49858 19.5002L7.13558 20.2067L7.09658 21.0002L6.42908 21.4307L5.99858 22.0982L5.20508 22.1372L4.49858 22.5002L3.79208 22.1372L2.99858 22.0982L2.56808 21.4307L1.90058 21.0002L1.86158 20.2067L1.49858 19.5002L1.86158 18.7937L1.90058 18.0002L2.56808 17.5697L2.99858 16.9022L3.79208 16.8632H3.79058Z" fill="#808080"/>
    </g>
    <defs>
    <clipPath id="clip0_3817_1703">
    <rect width="24" height="24" fill="#808080"/>
    </clipPath>
    </defs>
    </svg>